<svg width="173" height="176" viewBox="0 0 173 176" fill="none" xmlns="http://www.w3.org/2000/svg">
<g clip-path="url(#clip0_5_2)">
<path opacity="0.1" d="M172.745 101.951C172.125 94.9474 170.322 88.3216 167.97 82.4016C162.663 69.0248 154.62 59.0445 145.925 51.8956C145.842 51.8252 145.751 51.7593 145.672 51.6911C146.632 50.2588 147.319 48.5682 147.678 46.7493C150.353 32.9505 132.315 15.5575 107.402 7.90513C87.4085 1.77183 69.0598 3.7679 61.207 11.928C42.8897 10.4772 23.7798 24.6695 11.0806 46.5295C6.54141 54.3533 2.70057 63.595 1.01584 74.0436C-1.03377 86.6971 0.191807 100.316 3.0672 112.527C5.28266 121.932 8.51944 130.742 12.589 138.289C12.8788 138.826 13.1727 139.356 13.4706 139.881C13.9839 140.785 14.5077 141.664 15.0419 142.519C18.3939 147.894 22.2103 152.457 26.4073 155.911C28.7918 157.88 31.3519 159.488 34.0348 160.703C41.1927 163.93 48.8744 164.065 55.9485 160.703C57.1341 160.141 58.2909 159.487 59.4123 158.745C60.0338 158.336 60.6483 157.896 61.2559 157.426C62.4273 156.52 63.5778 155.509 64.7196 154.458C66.3031 152.998 67.8621 151.459 69.4526 150.022L69.5887 149.896C71.4568 148.208 73.3475 146.663 75.3186 145.55C76.6316 144.789 78.0215 144.259 79.4492 143.974C81.5623 143.596 83.7156 143.807 85.7569 144.592C86.1445 144.733 86.5321 144.893 86.9162 145.069C88.1649 145.65 89.3746 146.356 90.5335 147.181C95.5685 150.699 100.387 156.307 105.331 160.703C106.03 161.332 106.747 161.937 107.459 162.506C113.767 167.547 120.705 170.004 127.57 172.387C135.353 175.091 143.589 177.716 151.119 173.506C155.484 171.068 159.264 166.445 162.293 160.703C163.62 158.173 164.784 155.512 165.774 152.748C166.266 151.38 166.726 149.988 167.155 148.571C169.644 140.327 171.092 131.27 172.09 122.191C172.83 115.508 173.333 108.665 172.745 101.951Z" fill="#B3660E"/>
<g opacity="0.1">
<path d="M54.3618 117.21C54.4159 117.405 54.4718 117.594 54.5364 117.779C55.6875 116.643 56.8025 115.471 57.8814 114.262C58.5264 113.9 59.0598 113.282 59.4003 112.503C59.711 112.134 60.0201 111.756 60.3256 111.38C60.1934 111.193 60.0517 111.018 59.9013 110.854C58.8678 109.713 57.5898 109.234 56.4219 109.72C55.2539 110.206 54.4561 111.549 54.1645 113.237C53.9477 114.56 54.0159 115.931 54.3618 117.21Z" fill="#B3660E"/>
<path d="M52.4449 109.907C52.7716 111.189 53.364 112.339 54.161 113.237C55.1946 114.374 56.4708 114.855 57.6405 114.367C57.7208 114.332 57.7976 114.295 57.8779 114.255C58.5229 113.893 59.0563 113.276 59.3968 112.497C59.631 111.983 59.8 111.427 59.8978 110.848C60.0998 109.525 60.0293 108.16 59.6931 106.881C59.3569 105.603 58.7662 104.454 57.9774 103.545C56.9421 102.404 55.6659 101.925 54.498 102.411C53.33 102.896 52.5322 104.24 52.2406 105.928C52.0251 107.253 52.0957 108.627 52.4449 109.907Z" fill="#B3660E"/>
<path d="M55.7163 107.078C57.7184 106.245 58.6392 102.894 57.7729 99.5934C56.9066 96.293 54.5812 94.2931 52.579 95.1263C50.5769 95.9596 49.6561 99.3106 50.5224 102.611C51.3887 105.911 53.7141 107.911 55.7163 107.078Z" fill="#B3660E"/>
<path d="M53.7998 99.776C55.8019 98.9427 56.7227 95.5917 55.8564 92.2914C54.9901 88.991 52.6647 86.991 50.6626 87.8243C48.6604 88.6576 47.7396 92.0086 48.6059 95.3089C49.4722 98.6093 51.7976 100.609 53.7998 99.776Z" fill="#B3660E"/>
<path d="M51.8827 92.4741C53.8849 91.6408 54.8057 88.2898 53.9394 84.9895C53.0731 81.6891 50.7477 79.6892 48.7455 80.5224C46.7434 81.3557 45.8226 84.7067 46.6889 88.007C47.5552 91.3074 49.8806 93.3073 51.8827 92.4741Z" fill="#B3660E"/>
<path d="M50.7671 30.8665C51.0551 29.8662 51.2885 28.8424 51.4655 27.802L41.4234 29.7981L51.75 25.6059C52.0265 22.4872 51.7951 19.3303 51.0699 16.3281C50.3446 13.3258 49.1409 10.5413 47.5321 8.14471L36.0829 22.9262L45.7304 5.82329C43.8542 3.72346 41.6547 2.13248 39.269 1.14944C36.8833 0.166389 34.3623 -0.187681 31.8632 0.109274C29.3641 0.406229 26.9403 1.34785 24.7427 2.8755C22.5452 4.40316 20.6209 6.48413 19.0897 8.98884C17.5586 11.4935 16.4533 14.3684 15.8428 17.4343C15.2323 20.5002 15.1296 23.6915 15.5411 26.8095C15.9526 29.9276 16.8695 32.9056 18.2346 35.5581C19.5998 38.2106 21.384 40.4808 23.4762 42.2274C23.0282 43.7844 22.7151 45.3978 22.5422 47.0395L37.0326 49.9808L22.3868 49.8973C22.3657 53.728 23.1035 57.5049 24.5335 60.8861C25.9635 64.2674 28.0405 67.1462 30.5766 69.2622C29.4091 73.3255 29.1732 77.7203 29.8959 81.9444C30.6186 86.1685 32.2706 90.0512 34.6632 93.1488C37.0557 96.2463 40.0921 98.4337 43.4254 99.4607C46.7586 100.488 50.2541 100.313 53.5122 98.9566C56.7703 97.6001 59.6595 95.1166 61.8495 91.79C64.0396 88.4634 65.442 84.4279 65.8965 80.145C66.351 75.8621 65.8392 71.5046 64.4197 67.5707C63.0001 63.6368 60.7301 60.2852 57.8692 57.8991C59.2661 53.043 59.3259 47.7364 58.0387 42.8323C56.7516 37.9283 54.1924 33.7115 50.7724 30.8599L50.7671 30.8665Z" fill="#3B2E1B"/>
<path opacity="0.1" d="M23.3017 57.3012C24.5836 62.2074 27.1432 66.425 30.5661 69.2711C29.401 73.3343 29.1673 77.7282 29.8915 81.9508C30.6157 86.1733 32.2688 90.0542 34.6616 93.1498C37.0545 96.2455 40.0908 98.4311 43.4234 99.4568C46.7561 100.483 50.2506 100.307 53.5078 98.9504C56.765 97.5938 59.6534 95.1107 61.8429 91.785C64.0325 88.4592 65.4348 84.425 65.8897 80.1432C66.3446 75.8614 65.8337 71.5049 64.4154 67.5714C62.9971 63.6379 60.7286 60.2862 57.8692 57.8992C59.2152 53.2102 22.6627 54.8369 23.3017 57.3012Z" fill="black"/>
</g>
<path d="M67.7541 55.0018C67.3194 53.8851 67.157 52.6254 66.9999 51.39C66.0781 44.096 65.2157 36.2216 67.7192 29.6113C68.1137 28.5715 68.5921 27.5603 69.2904 26.8502C70.0377 26.0918 70.9647 25.7313 71.8306 25.2388C74.3446 23.8143 76.3698 21.2577 78.58 19.1363C80.7902 17.0149 83.4579 15.2453 86.1657 15.7861C87.5623 16.0653 88.8543 16.9446 90.209 17.4964C94.0359 19.0572 98.4529 18.0394 101.89 20.7455C103.132 21.7237 104.144 23.1197 105.139 24.5002L109.579 30.6555C110.782 32.3218 112.008 34.0299 112.736 36.1183C113.464 38.2067 113.617 40.7809 112.69 42.7286C112.224 43.7113 111.487 44.562 111.407 45.7161C111.32 46.9692 112.042 48.0463 112.306 49.2554C113.004 52.4496 110.443 55.1909 108.107 56.4527C101.049 60.2558 93.2834 59.8183 85.8113 59.6622C80.2473 59.5413 70.9629 63.2191 67.7541 55.0018Z" fill="#1C243C"/>
<path d="M80.3067 70.8099C79.8161 72.285 78.7616 73.327 77.7193 74.2436C76.6771 75.1603 75.565 76.0331 74.3097 76.1078C76.5217 79.6889 79.5472 82.3224 82.5047 84.9011C83.8821 86.0991 85.2788 87.295 86.85 87.9721C88.2921 88.592 89.8267 88.7459 91.3351 89.0053C93.2555 89.3373 95.1672 89.8495 97.0963 89.7484C100.534 89.5681 103.821 87.3852 106.101 84.1405C108.381 80.8957 109.687 76.6662 110.04 72.3509C108.818 72.3267 107.69 71.4716 106.704 70.5395C105.497 69.403 104.366 68.0884 103.587 66.4638C102.744 64.7052 102.365 62.6651 101.981 60.6669C97.9116 60.513 93.8421 60.3613 89.7708 60.4602C88.2886 60.4954 86.8029 60.5679 85.3574 61.0318C83.9799 61.4714 81.1028 62.6058 80.263 64.1688C79.7794 65.0701 80.263 65.9978 80.4376 66.9694C80.6611 68.2466 80.7169 69.581 80.3067 70.8099Z" fill="#BE6F72"/>
<path opacity="0.1" d="M80.3067 70.8099C79.8161 72.285 78.7616 73.327 77.7193 74.2436C76.6771 75.1603 75.565 76.0331 74.3097 76.1078C76.5217 79.6889 79.5472 82.3224 82.5047 84.9011C83.8821 86.0991 85.2788 87.295 86.85 87.9721C88.2921 88.592 89.8267 88.7459 91.3351 89.0053C93.2555 89.3373 95.1672 89.8495 97.0963 89.7484C100.534 89.5681 103.821 87.3852 106.101 84.1405C108.381 80.8957 109.687 76.6662 110.04 72.3509C108.818 72.3267 107.69 71.4716 106.704 70.5395C105.497 69.403 104.366 68.0884 103.587 66.4638C102.744 64.7052 102.365 62.6651 101.981 60.6669C97.9116 60.513 93.8421 60.3613 89.7708 60.4602C88.2886 60.4954 86.8029 60.5679 85.3574 61.0318C83.9799 61.4714 81.1028 62.6058 80.263 64.1688C79.7794 65.0701 80.263 65.9978 80.4376 66.9694C80.6611 68.2466 80.7169 69.581 80.3067 70.8099Z" fill="black"/>
<path d="M84.9104 76.8838C86.0749 78.7062 87.2743 80.566 88.87 81.7619C89.3571 82.1246 89.9018 82.4214 90.4674 82.3972C91.3054 82.3532 91.9985 81.6014 92.613 80.8804C95.6814 77.2842 98.5953 73.4845 101.342 69.4975C102.203 68.2467 103.088 66.9431 104.266 66.2154C105.331 78.3145 105.609 90.503 105.098 102.659C105.103 102.889 105.061 103.116 104.975 103.319C104.792 103.668 104.408 103.719 104.074 103.734C94.2192 104.2 83.9694 104.574 74.9434 99.5572C75.5702 97.216 75.4672 94.6836 75.5283 92.2127C75.6278 88.1612 76.1865 84.1493 76.9581 80.2209C77.337 78.293 77.7682 76.3826 78.2256 74.4833C78.6062 72.8917 78.896 70.0866 79.7462 68.8842C81.7016 71.0825 83.2676 74.3118 84.9104 76.8838Z" fill="#E3E8F4"/>
<path d="M89.385 82.7753H90.6071L93.7496 89.3702L90.4325 99.7023L86.4171 89.5901L89.385 82.7753Z" fill="#2C344C"/>
<path d="M89.275 93.1953C88.1387 91.1072 87.3555 88.7472 86.974 86.2618C86.8518 85.4661 86.7697 84.6549 86.5463 83.8943C86.2146 82.7665 85.5896 81.8212 85.0256 80.8474C82.9346 77.2355 81.5879 73.0268 81.1062 68.5984C80.8898 66.5891 80.7449 64.2875 79.4564 63.0718C78.6464 62.309 77.5674 62.1925 76.5549 62.2145C72.6387 62.3377 68.8879 64.228 65.9856 67.541C65.503 68.1437 64.993 68.7103 64.458 69.2381C63.9097 69.7102 63.3247 70.1109 62.7121 70.434C61.1653 71.3133 59.5487 72.0432 57.8639 72.2652C57.4309 72.2879 57.0018 72.3772 56.586 72.5312C56.0832 72.751 55.6694 73.2149 55.2452 73.6303C53.89 74.9446 52.3331 75.8908 50.6729 76.409C48.3298 83.2599 46.5173 90.3795 45.2608 97.6689C44.9448 99.4825 44.6619 101.309 44.2307 103.086C43.6354 105.548 42.759 107.895 42.1741 110.362C39.8487 120.177 42.2911 130.87 40.7251 140.919L124.71 141.064C123.39 138.485 123.865 135.21 123.752 132.145C123.645 129.322 123.076 126.564 122.682 123.78C122.022 119.127 121.852 114.383 121.784 109.656C121.756 107.66 121.755 105.598 122.367 103.758C123.518 100.305 126.503 98.4823 129.33 97.3106C130.681 96.7522 132.102 96.2422 133.171 95.0485C134.265 93.8152 134.834 92.0038 135.183 90.2122C133.279 85.4858 130.803 80.9793 127.676 77.4334C126.501 76.1144 125.246 74.8768 124.255 73.3336C123.65 72.3905 123.149 71.3397 122.483 70.4758C120.814 68.2928 118.293 67.4707 115.89 67.3498C115.148 67.3124 114.396 67.33 113.677 67.0969C111.613 66.4375 110.298 63.8984 108.439 62.5838C107.145 61.6748 105.635 61.3829 104.184 61.7616C103.137 62.0364 102.065 62.819 101.829 64.1204C101.698 64.8525 101.859 65.6087 101.92 66.3539C102.109 68.6468 101.353 70.8934 100.438 72.8895C97.1505 80.0142 91.775 85.5738 89.275 93.1953Z" fill="#482906"/>
<path d="M107.625 49.251C107.625 54.1784 106.322 58.9655 103.923 62.8583C101.524 66.7511 98.165 69.5285 94.3745 70.753C90.5841 71.9775 86.5779 71.5796 82.9868 69.6219C79.3958 67.6642 76.4239 64.258 74.5393 59.9397C72.6546 55.6214 71.9644 50.6364 72.5771 45.7698C73.1899 40.9032 75.0709 36.4315 77.9239 33.059C80.7769 29.6865 84.4398 27.6049 88.3356 27.1419C92.2315 26.6789 96.139 27.8608 99.4427 30.5016C101.95 32.5061 104.015 35.2757 105.446 38.5535C106.876 41.8313 107.626 45.5109 107.625 49.251Z" fill="#BE6F72"/>
<path d="M167.158 148.566V138.283H12.5927C12.8825 138.819 13.1764 139.35 13.4744 139.874C13.6995 140.546 14.0077 141.168 14.3874 141.719C14.5897 142.01 14.8117 142.278 15.0508 142.521C18.4028 147.896 22.2192 152.46 26.4162 155.913C28.8007 157.882 31.3608 159.49 34.0438 160.706H162.3L167.158 148.566Z" fill="#1C243C"/>
<path d="M93.2939 126.522C90.9248 126.284 88.4614 125.541 86.2303 126.57C85.4695 126.953 84.748 127.448 84.0811 128.047C81.6713 130.085 79.4517 132.458 77.4644 135.122C76.89 135.889 76.3279 136.698 75.9752 137.656C75.4777 139.008 75.434 140.549 75.1023 141.98C74.912 142.8 74.6222 143.631 74.7374 144.473C74.8527 145.315 75.6243 146.069 76.2022 145.621C76.1733 145.855 76.1859 146.095 76.2391 146.323C76.2924 146.551 76.3849 146.761 76.5102 146.939C76.6354 147.117 76.7903 147.257 76.9637 147.351C77.1371 147.445 77.3248 147.489 77.5133 147.48C78.3968 147.442 79.2498 147.064 79.9575 146.397C79.98 146.663 80.0833 146.909 80.2459 147.082C80.4085 147.255 80.6178 147.343 80.8304 147.327C82.344 147.201 83.7861 146.227 85.0815 145.163C86.6021 143.924 88.1123 142.512 89.893 142.086C88.7975 142.715 87.8325 143.655 87.0735 144.832C86.782 145.282 86.5096 145.81 86.8308 146.507C87.0229 146.898 87.3184 147.191 87.6653 147.335C89.6591 148.215 91.8257 146.759 93.156 144.741C93.692 143.926 94.1651 142.983 94.9018 142.488C96.0873 141.686 97.5485 142.248 98.8823 142.015C100.363 141.76 101.608 140.545 102.968 139.76C104.778 138.718 106.796 138.441 108.729 137.821C108.961 137.779 109.175 137.639 109.336 137.425C109.457 137.172 109.509 136.875 109.485 136.581C109.476 133.57 109.296 130.564 108.945 127.586C108.916 127.106 108.8 126.641 108.605 126.227C108.224 125.546 107.502 125.348 106.85 125.212C105.803 124.992 104.628 124.499 103.573 124.504C102.561 124.504 101.585 125.225 100.619 125.579C98.2429 126.448 95.7609 126.767 93.2939 126.522Z" fill="#BE6F72"/>
<path d="M104.338 122.558C101.721 122.904 99.2593 124.29 97.3093 126.515C99.4864 125.823 101.829 125.139 103.928 126.141C104.95 126.63 105.834 127.49 106.467 128.611C107.101 129.733 107.456 131.067 107.487 132.443C107.518 133.819 107.224 135.176 106.642 136.341C106.06 137.506 105.216 138.428 104.218 138.988C104.642 139.589 105.265 139.883 105.885 140.11C110.363 141.754 115.157 140.769 119.736 139.648C120.574 139.443 121.482 139.173 121.994 138.305C122.449 137.52 122.435 136.463 122.395 135.489C122.278 132.677 122.084 129.773 121.072 127.269C119.7 123.871 117.317 122.604 114.446 122.998C111.07 123.451 107.718 122.127 104.338 122.558Z" fill="#E3E8F4"/>
<path d="M132.83 86.5388C134.277 88.2733 135.321 90.4628 136.28 92.6699C139.527 100.143 142.015 108.1 143.686 116.355C143.85 117.166 144.012 117.999 144.396 118.683C144.955 119.674 145.903 120.221 146.512 121.158C147.244 122.297 147.385 123.901 147.144 125.335C146.903 126.768 146.329 128.076 145.748 129.344C144.157 132.813 142.28 136.394 139.36 137.979C138.137 138.639 136.802 138.911 135.48 139.129C130.516 139.952 125.5 140.155 120.504 139.738C121.377 138.463 121.461 136.581 121.152 134.943C120.843 133.306 120.199 131.804 119.756 130.219C119.406 128.982 119.16 127.663 118.547 126.599C118.096 125.868 117.539 125.252 116.906 124.781C115.469 123.631 113.852 122.885 112.165 122.591C113.416 121.36 115.038 120.951 116.564 120.393C118.09 119.834 119.686 118.977 120.485 117.249C120.965 116.214 121.098 114.985 121.163 113.789C121.358 110.191 121.024 106.578 120.178 103.132C119.616 100.839 118.82 98.4427 119.305 96.1257C119.553 94.9562 120.11 93.9273 120.656 92.9425C121.721 91.008 122.825 89.0273 124.379 87.7215C125.719 86.5938 127.313 86.064 128.909 85.9233C130.105 85.8244 131.922 85.4594 132.83 86.5388Z" fill="#482906"/>
<path d="M70.0062 153.917C69.9923 156.212 65.0358 158.753 59.3008 158.753C53.5657 158.753 48.7786 156.219 48.7018 153.917C48.4347 145.935 53.564 150.428 59.3008 150.428C65.0376 150.428 70.0586 144.728 70.0062 153.917Z" fill="#3F3D56"/>
<path opacity="0.2" d="M70.0062 153.917C69.9923 156.212 65.0358 158.753 59.3008 158.753C53.5657 158.753 48.7786 156.219 48.7018 153.917C48.4347 145.935 53.564 150.428 59.3008 150.428C65.0376 150.428 70.0586 144.728 70.0062 153.917Z" fill="black"/>
<path d="M69.6867 150.428C69.6867 152.726 65.0358 155.265 59.3008 155.265C53.5657 155.265 48.9148 152.732 48.9148 150.428C48.9148 148.125 53.564 146.942 59.3008 146.942C65.0376 146.942 69.6867 148.133 69.6867 150.428Z" fill="#3F3D56"/>
<path opacity="0.1" d="M69.6867 150.428C69.6867 152.726 65.0358 155.265 59.3008 155.265C53.5657 155.265 48.9148 152.732 48.9148 150.428C48.9148 148.125 53.564 146.942 59.3008 146.942C65.0376 146.942 69.6867 148.133 69.6867 150.428Z" fill="#2C344C"/>
<path d="M67.6616 149.523C67.6511 151.314 63.7858 153.288 59.3113 153.288C54.8367 153.288 51.1058 151.31 51.043 149.523C50.8352 143.297 54.8367 146.801 59.3113 146.801C63.7858 146.801 67.7035 142.356 67.6616 149.523Z" fill="#3F3D56"/>
<path opacity="0.2" d="M67.6616 149.523C67.6511 151.314 63.7858 153.288 59.3113 153.288C54.8367 153.288 51.1058 151.31 51.043 149.523C50.8352 143.297 54.8367 146.801 59.3113 146.801C63.7858 146.801 67.7035 142.356 67.6616 149.523Z" fill="black"/>
<path d="M67.4119 146.359C67.4119 148.362 63.7858 150.569 59.3112 150.569C54.8367 150.569 51.2088 148.371 51.2088 146.359C51.2088 144.348 54.8367 143.321 59.3112 143.321C63.7858 143.321 67.4119 144.354 67.4119 146.359Z" fill="#3F3D56"/>
<path opacity="0.1" d="M67.4119 146.359C67.4119 148.362 63.7858 150.569 59.3112 150.569C54.8367 150.569 51.2088 148.371 51.2088 146.359C51.2088 144.348 54.8367 143.321 59.3112 143.321C63.7858 143.321 67.4119 144.354 67.4119 146.359Z" fill="#2C344C"/>
<path d="M39.8958 159.637C39.8958 159.637 41.4287 157.509 41.6923 155.117C41.9559 152.726 34.2026 149.052 34.2026 149.052C34.2026 149.052 31.5141 151.031 31.4233 152.884C31.4233 152.884 36.57 159.848 39.8958 159.637Z" fill="#3F3D56"/>
<path opacity="0.2" d="M39.8958 159.637C39.8958 159.637 41.4287 157.509 41.6923 155.117C41.9559 152.726 34.2026 149.052 34.2026 149.052C34.2026 149.052 31.5141 151.031 31.4233 152.884C31.4233 152.884 36.57 159.848 39.8958 159.637Z" fill="black"/>
<path d="M39.8257 159.734C40.305 158.728 38.7647 156.455 36.3854 154.657C34.006 152.859 31.6886 152.217 31.2093 153.223C30.73 154.228 32.2703 156.501 34.6497 158.299C37.029 160.097 39.3464 160.74 39.8257 159.734Z" fill="#3F3D56"/>
<path opacity="0.1" d="M39.8257 159.734C40.305 158.728 38.7647 156.455 36.3854 154.657C34.006 152.859 31.6886 152.217 31.2093 153.223C30.73 154.228 32.2703 156.501 34.6497 158.299C37.029 160.097 39.3464 160.74 39.8257 159.734Z" fill="#2C344C"/>
<path d="M41.8005 154.385L46.2105 145.128L41.7255 140.332L38.2285 139.507L37.1374 141.985L34.0682 149.156L41.8005 154.385Z" fill="#3F3D56"/>
<path opacity="0.1" d="M41.8005 154.385L46.2105 145.128L41.7255 140.332L38.2285 139.507L37.1374 141.985L34.0682 149.156L41.8005 154.385Z" fill="#2C344C"/>
<path d="M46.2699 146.041C46.2699 146.041 49.2483 142.055 48.4836 139.901C47.7189 137.746 43.6808 133.429 41.1092 134.086C38.5376 134.743 38.1255 139.518 38.1255 139.518L46.2699 146.041Z" fill="#3F3D56"/>
<path opacity="0.2" d="M46.2699 146.041C46.2699 146.041 49.2483 142.055 48.4836 139.901C47.7189 137.746 43.6808 133.429 41.1092 134.086C38.5376 134.743 38.1255 139.518 38.1255 139.518L46.2699 146.041Z" fill="black"/>
<path d="M12.3919 128.527L35.2048 145.999C35.2048 145.999 37.3731 145.645 37.1374 141.989L14.5428 124.328C14.0829 123.968 13.538 123.82 13.0012 123.91C12.3832 124.016 11.6517 124.299 11.4143 125.04C11.3536 125.229 11.3114 125.426 11.2886 125.627C11.2248 126.193 11.2955 126.771 11.4918 127.287C11.6882 127.803 12.0014 128.234 12.3919 128.527Z" fill="#3F3D56"/>
<path opacity="0.2" d="M12.3919 128.527L35.2048 145.999C35.2048 145.999 37.3731 145.645 37.1374 141.989L14.5428 124.328C14.0829 123.968 13.538 123.82 13.0012 123.91C12.3832 124.016 11.6517 124.299 11.4143 125.04C11.3536 125.229 11.3114 125.426 11.2886 125.627C11.2248 126.193 11.2955 126.771 11.4918 127.287C11.6882 127.803 12.0014 128.234 12.3919 128.527Z" fill="#1C243C"/>
<path d="M41.797 155.689C41.9162 155.68 42.03 155.624 42.122 155.529C42.214 155.433 42.2794 155.303 42.3086 155.157C42.4203 154.662 42.216 154.188 42.0013 153.792C41.6178 153.086 41.1392 152.47 40.5872 151.972C39.6584 151.125 38.7575 150.171 37.7065 149.553C37.0981 149.212 36.4608 148.959 35.8071 148.799C35.317 148.658 34.8155 148.588 34.3126 148.593C34.2234 148.596 34.137 148.633 34.065 148.699C33.9929 148.766 33.9386 148.858 33.9092 148.964C33.8799 149.071 33.8769 149.185 33.9006 149.294C33.9243 149.402 33.9736 149.499 34.042 149.571C34.2745 149.765 34.5339 149.902 34.8067 149.976C36.1667 150.479 37.4255 151.352 38.6039 152.343C39.2386 152.857 39.8331 153.446 40.3794 154.102C40.7425 154.555 41.2069 155.707 41.797 155.689Z" fill="#3F3D56"/>
<path opacity="0.2" d="M41.797 155.689C41.9162 155.68 42.03 155.624 42.122 155.529C42.214 155.433 42.2794 155.303 42.3086 155.157C42.4203 154.662 42.216 154.188 42.0013 153.792C41.6178 153.086 41.1392 152.47 40.5872 151.972C39.6584 151.125 38.7575 150.171 37.7065 149.553C37.0981 149.212 36.4608 148.959 35.8071 148.799C35.317 148.658 34.8155 148.588 34.3126 148.593C34.2234 148.596 34.137 148.633 34.065 148.699C33.9929 148.766 33.9386 148.858 33.9092 148.964C33.8799 149.071 33.8769 149.185 33.9006 149.294C33.9243 149.402 33.9736 149.499 34.042 149.571C34.2745 149.765 34.5339 149.902 34.8067 149.976C36.1667 150.479 37.4255 151.352 38.6039 152.343C39.2386 152.857 39.8331 153.446 40.3794 154.102C40.7425 154.555 41.2069 155.707 41.797 155.689Z" fill="black"/>
<path d="M45.4388 146.748C45.4388 146.748 47.677 146.817 45.8247 143.983C43.9723 141.149 40.6587 138.338 38.3001 138.973C38.3001 138.973 37.3225 139.993 38.1674 140.169C38.9688 140.336 42.7066 141.268 44.4245 143.891C44.6125 144.175 44.8225 144.436 45.0513 144.669C45.4546 145.082 45.9975 145.865 45.4388 146.748Z" fill="#3F3D56"/>
<path opacity="0.2" d="M45.4388 146.748C45.4388 146.748 47.677 146.817 45.8247 143.983C43.9723 141.149 40.6587 138.338 38.3001 138.973C38.3001 138.973 37.3225 139.993 38.1674 140.169C38.9688 140.336 42.7066 141.268 44.4245 143.891C44.6125 144.175 44.8225 144.436 45.0513 144.669C45.4546 145.082 45.9975 145.865 45.4388 146.748Z" fill="black"/>
<path d="M49.0874 140.505C49.5667 139.499 48.0264 137.226 45.6471 135.428C43.2677 133.63 40.9503 132.988 40.471 133.993C39.9917 134.999 41.5321 137.272 43.9114 139.07C46.2908 140.868 48.6082 141.51 49.0874 140.505Z" fill="#3F3D56"/>
<path opacity="0.1" d="M49.0874 140.505C49.5667 139.499 48.0264 137.226 45.6471 135.428C43.2677 133.63 40.9503 132.988 40.471 133.993C39.9917 134.999 41.5321 137.272 43.9114 139.07C46.2908 140.868 48.6082 141.51 49.0874 140.505Z" fill="#2C344C"/>
<path d="M34.3126 139.778C34.2824 140.29 34.1529 140.785 33.9356 141.219C33.7183 141.654 33.4198 142.015 33.0661 142.27C31.8947 143.057 30.2501 142.356 29.6984 140.835C29.4121 140.044 29.4068 139.155 29.3492 138.283C29.3305 137.998 29.3002 137.715 29.2584 137.434C29.0839 136.302 28.3401 135.1 27.441 135.324C26.6991 135.506 26.308 136.555 26.2189 137.5C26.196 137.76 26.1843 138.021 26.184 138.283C26.184 138.555 26.1928 138.828 26.205 139.1C26.2294 139.659 26.2678 140.219 26.2661 140.778C26.2661 141.877 26.0775 143.044 25.4473 143.798C24.6826 144.715 23.5094 144.757 22.4514 144.741C19.8693 144.708 16.9957 144.522 15.0526 142.521C14.8134 142.278 14.5914 142.01 14.3892 141.719C14.0094 141.168 13.7013 140.546 13.4761 139.874C13.303 139.361 13.1703 138.828 13.0798 138.283C12.79 136.579 12.8546 134.721 13.092 132.994C13.2457 131.864 13.5424 130.626 14.1989 129.905C14.3552 129.733 14.5319 129.593 14.7226 129.489C15.0369 129.322 15.393 129.27 15.6671 129.008C15.9412 128.746 16.1193 128.272 16.4091 127.986C16.9905 127.412 17.8739 127.658 18.5547 127.465H18.5844L18.6211 127.452C19.3561 127.232 20.0352 126.726 20.7283 126.352C21.0268 126.192 21.3254 126.038 21.6257 125.902C22.3733 125.526 23.1804 125.375 23.9825 125.462C26.6013 125.838 29.7438 127.839 31.5368 130.239C31.9785 130.791 32.3224 131.455 32.5459 132.187C32.6924 132.8 32.7734 133.435 32.7868 134.075C32.8339 134.979 32.8723 135.88 33.2285 136.652C33.445 137.118 33.7627 137.498 33.9879 137.971C34.0398 138.077 34.0853 138.188 34.1241 138.302C34.2841 138.767 34.349 139.274 34.3126 139.778Z" fill="#BE6F72"/>
<path d="M28.5531 128.927C29.6198 129.621 30.6691 130.406 31.5071 131.488C32.3451 132.569 32.9631 133.987 33.012 135.5C33.7444 134.384 34.3729 133.166 34.8853 131.87C35.2903 130.848 35.6238 129.639 35.2641 128.588C35.0923 128.143 34.8505 127.747 34.5536 127.423C32.9823 125.55 30.8698 124.515 28.7329 124.09C26.4232 123.631 21.809 122.629 21.4546 126.862C24.0419 126.709 26.2416 127.427 28.5531 128.927Z" fill="#E3E8F4"/>
<path d="M57.1708 74.791C55.4617 75.7209 53.4609 75.0636 51.654 75.6264C50.3202 76.0419 49.1732 77.0949 48.0908 78.1611C45.9329 80.2846 43.8065 82.6588 42.6525 85.787C42.2754 86.8114 42.0065 87.8996 41.5544 88.8646C40.8228 90.4386 39.6549 91.6103 38.438 92.6018C35.3287 95.1254 31.7183 96.7038 28.9512 99.7947C27.7675 101.114 26.7706 102.679 25.8436 104.29C24.7542 106.181 23.7119 108.291 23.691 110.626C23.691 111.54 23.8341 112.468 23.691 113.367C23.3837 115.378 21.7706 116.627 21.0425 118.461C20.3442 120.208 20.5101 122.367 19.7332 124.055C19.2234 125.154 18.2998 126.254 18.5914 127.467C20.7318 125.442 23.3051 124.609 25.9239 125.269C27.235 125.596 28.4589 126.333 29.6321 127.139C30.9921 128.076 32.3329 129.14 33.3158 130.657C34.2987 132.174 34.887 134.192 34.5378 136.093C35.9537 135.214 36.7917 133.337 37.3731 131.49C37.9544 129.643 38.3979 127.671 39.3633 126.108C39.8609 125.302 40.4789 124.631 41.0673 123.93C44.3337 120.032 46.6889 115.108 49.0003 110.248C51.384 105.238 53.7665 100.226 56.1478 95.2112C56.8077 93.8196 57.4711 92.4193 57.9477 90.9157C59.5487 85.8595 58.5116 79.9549 57.1708 74.791Z" fill="#482906"/>
<path d="M156.898 141.943C162.395 141.943 166.851 140.864 166.851 139.534C166.851 138.203 162.395 137.124 156.898 137.124C151.401 137.124 146.945 138.203 146.945 139.534C146.945 140.864 151.401 141.943 156.898 141.943Z" fill="#482906"/>
<path d="M156.731 140.422C157.371 140.422 157.89 139.566 157.89 138.511C157.89 137.456 157.371 136.601 156.731 136.601C156.09 136.601 155.571 137.456 155.571 138.511C155.571 139.566 156.09 140.422 156.731 140.422Z" fill="#3F3D56"/>
<path d="M156.731 138.085C157.371 138.085 157.89 137.23 157.89 136.175C157.89 135.12 157.371 134.264 156.731 134.264C156.09 134.264 155.571 135.12 155.571 136.175C155.571 137.23 156.09 138.085 156.731 138.085Z" fill="#3F3D56"/>
<path d="M156.731 135.75C157.371 135.75 157.89 134.895 157.89 133.84C157.89 132.785 157.371 131.93 156.731 131.93C156.09 131.93 155.571 132.785 155.571 133.84C155.571 134.895 156.09 135.75 156.731 135.75Z" fill="#3F3D56"/>
<path d="M156.731 133.416C157.371 133.416 157.89 132.56 157.89 131.505C157.89 130.45 157.371 129.595 156.731 129.595C156.09 129.595 155.571 130.45 155.571 131.505C155.571 132.56 156.09 133.416 156.731 133.416Z" fill="#3F3D56"/>
<path d="M156.731 131.081C157.371 131.081 157.89 130.226 157.89 129.171C157.89 128.116 157.371 127.26 156.731 127.26C156.09 127.26 155.571 128.116 155.571 129.171C155.571 130.226 156.09 131.081 156.731 131.081Z" fill="#3F3D56"/>
<path d="M156.731 128.746C157.371 128.746 157.89 127.891 157.89 126.836C157.89 125.781 157.371 124.926 156.731 124.926C156.09 124.926 155.571 125.781 155.571 126.836C155.571 127.891 156.09 128.746 156.731 128.746Z" fill="#3F3D56"/>
<path d="M156.731 126.412C157.371 126.412 157.89 125.557 157.89 124.501C157.89 123.446 157.371 122.591 156.731 122.591C156.09 122.591 155.571 123.446 155.571 124.501C155.571 125.557 156.09 126.412 156.731 126.412Z" fill="#3F3D56"/>
<path d="M161.071 108.522C161.229 108.269 161.373 108.002 161.502 107.724L158.457 107.093L161.75 107.124C162.066 106.258 162.238 105.321 162.256 104.369C162.275 103.417 162.139 102.47 161.856 101.586L157.438 104.473L161.512 100.7C161.131 99.869 160.618 99.1455 160.004 98.5749C159.391 98.0044 158.691 97.599 157.948 97.3841C157.205 97.1692 156.434 97.1494 155.685 97.3259C154.935 97.5023 154.223 97.8713 153.591 98.4098C152.96 98.9483 152.424 99.6448 152.016 100.456C151.608 101.267 151.336 102.175 151.219 103.124C151.102 104.073 151.142 105.041 151.335 105.97C151.528 106.899 151.872 107.768 152.343 108.522C152.098 108.918 151.886 109.345 151.711 109.797L155.664 112.384L151.446 110.602C151.15 111.703 151.077 112.88 151.233 114.026C151.389 115.172 151.769 116.251 152.34 117.166C151.696 118.197 151.296 119.436 151.184 120.74C151.073 122.044 151.256 123.361 151.711 124.541C152.166 125.721 152.876 126.716 153.759 127.412C154.642 128.108 155.663 128.477 156.704 128.477C157.746 128.477 158.767 128.108 159.65 127.412C160.533 126.716 161.243 125.721 161.698 124.541C162.153 123.361 162.336 122.044 162.224 120.74C162.113 119.436 161.713 118.197 161.069 117.166C161.838 115.933 162.256 114.411 162.256 112.844C162.256 111.276 161.838 109.754 161.069 108.522H161.071Z" fill="#482906"/>
<path opacity="0.1" d="M151.156 112.844C151.154 114.412 151.572 115.935 152.343 117.166C151.699 118.197 151.299 119.435 151.188 120.74C151.077 122.044 151.259 123.361 151.714 124.541C152.17 125.721 152.879 126.716 153.762 127.412C154.645 128.108 155.666 128.477 156.708 128.477C157.75 128.477 158.77 128.108 159.653 127.412C160.536 126.716 161.246 125.721 161.701 124.541C162.157 123.361 162.339 122.044 162.228 120.74C162.117 119.435 161.716 118.197 161.072 117.166C161.814 115.976 151.156 112.059 151.156 112.844Z" fill="#482906"/>
<path d="M81.2634 39.5565C82.4854 40.15 83.6779 41.003 84.989 41.1151C86.6528 41.2558 88.224 40.1874 89.8773 39.8928C92.9063 39.3542 95.7817 41.4316 98.6274 42.8429C101.473 44.2543 105.139 44.839 107.226 42.023C108.998 39.629 108.753 35.6479 107.329 32.922C105.904 30.196 103.577 28.433 101.276 26.914C98.7374 25.2388 96.0907 23.7154 93.2642 23.1241C87.2655 21.8732 81.1708 24.997 76.1935 29.3959C74.5419 30.8555 72.9095 32.5592 72.1204 34.8916C71.6735 36.2106 71.5338 37.8989 71.9231 39.2729C72.5621 41.5327 72.9811 41.2646 74.3062 40.6754C76.8377 39.5543 78.3338 38.1451 81.2634 39.5565Z" fill="#1C243C"/>
</g>
<defs>
<clipPath id="clip0_5_2">
<rect width="172.853" height="175.569" fill="white" transform="scale(1.00085)"/>
</clipPath>
</defs>
</svg>
